<svg width="29" height="29" viewBox="0 0 29 29" fill="none" xmlns="http://www.w3.org/2000/svg">
<path d="M29 2.701V23.2026C29 23.7732 28.7733 24.3204 28.3698 24.7238C27.9664 25.1273 27.4191 25.3539 26.8485 25.3539C26.2779 25.3539 25.7306 25.1273 25.3271 24.7238C24.9237 24.3204 24.697 23.7732 24.697 23.2026V8.12703L4.61619 28.2056C4.36543 28.4574 4.0674 28.6571 3.73921 28.7935C3.41102 28.9298 3.05912 29 2.70374 29C2.34835 29 1.99647 28.9298 1.66828 28.7935C1.34009 28.6571 1.04205 28.4574 0.791281 28.2056C0.539937 27.9547 0.340651 27.6565 0.204859 27.3284C0.0690678 27.0002 -0.000552827 26.6485 3.30565e-06 26.2933C-0.000552827 25.9382 0.0690678 25.5864 0.204859 25.2583C0.340651 24.9301 0.539937 24.632 0.791281 24.3811L20.8721 4.30255H5.88321C5.31259 4.30255 4.76533 4.07585 4.36184 3.67241C3.95836 3.26897 3.73169 2.72183 3.73169 2.15127C3.73169 1.58072 3.95836 1.03352 4.36184 0.630081C4.76533 0.226639 5.31259 0 5.88321 0H26.4206L26.5855 0.0142975C27.1973 0.0788022 27.7681 0.352338 28.2016 0.788754C28.6517 1.23661 28.9286 1.82939 28.9833 2.46197C28.9952 2.53846 29 2.61973 29 2.701Z" fill="url(#paint0_linear_229_1765)"/>
<defs>
<linearGradient id="paint0_linear_229_1765" x1="0.00215404" y1="14.5007" x2="29.0096" y2="14.5007" gradientUnits="userSpaceOnUse">
<stop stop-color="#0085FE"/>
<stop offset="1" stop-color="#29E5FF"/>
</linearGradient>
</defs>
</svg>
