<svg width="1665" height="887" viewBox="0 0 1665 887" fill="none" xmlns="http://www.w3.org/2000/svg">
<g opacity="0.15">
<path opacity="0.5" d="M849.948 357.862C813.908 328.083 789.709 274.105 794.651 227.939C804.949 132.107 895.72 105.067 978.82 82.7451C1069.08 58.4447 1167.42 51.3422 1254.79 84.3685C1342.16 117.395 1415.12 197.094 1419.55 289.172C1420.84 303.09 1418.66 317.108 1413.21 330.011C1407.76 340.387 1400.19 349.54 1390.97 356.899C1338.92 401.847 1266.68 415.95 1197.64 420.617C1127.77 425.293 1057.59 421.974 988.499 410.725C938.815 402.709 888.1 389.975 849.948 357.862Z" fill="url(#paint0_linear_665_1764)"/>
<path opacity="0.5" d="M822.153 688.175C810.671 647.59 772.159 620.144 732.668 604.215C609.1 554.244 464.628 589.705 349.967 657.331C399.549 763.41 516.578 830.477 634.895 837.58C681.902 840.421 731.381 834.13 770.357 808.105C809.332 782.08 834.818 732.87 822.153 688.175Z" fill="url(#paint1_linear_665_1764)"/>
<path d="M413.859 722.572C391.771 733.783 311.349 786.696 189.377 759.098C41.6094 725.615 29.3556 576.16 26.1634 533.343C14.4244 376.075 82.7989 263.958 164.354 189.738C397.744 -22.8275 710.423 53.9294 830.182 96.5946C954.883 140.985 1056.72 234.534 1179.11 285.722C1256.77 318.17 1340.93 332.711 1425.16 328.235C1463.32 326.155 1502.39 320.219 1539.26 330.112C1616.49 350.861 1662.57 440.91 1651.14 521.015C1639.71 601.12 1581.94 668.492 1513.26 710.041C1416.98 768.23 1307.31 816.171 1197.9 831.188C1079.17 847.523 946.748 835.449 834.043 794.205C794.965 779.848 758.512 759.098 720.103 743.016C640.35 709.534 519.304 680.667 434.969 713.034C427.763 715.836 420.716 719.02 413.859 722.572Z" fill="url(#paint2_linear_665_1764)"/>
<path d="M1410.27 250.034C1408.84 242.775 1408.68 235.327 1409.81 228.016C1413.46 202.651 1432.62 186.619 1452.49 172.871C1476.33 156.434 1500.94 140.555 1528.54 130.967C1565.97 117.878 1612.97 117.117 1644.18 144.664C1675.38 172.212 1668.27 229.691 1642.32 258.303C1617.76 285.445 1587.28 292.902 1552.37 298.888C1505.21 306.701 1423.25 310.455 1410.27 250.034Z" fill="url(#paint3_linear_665_1764)"/>
<path d="M0.8303 734.037C-0.178482 736.914 -0.270296 740.025 0.567194 742.954C1.40468 745.883 3.13138 748.489 5.51558 750.424C8.62019 752.679 12.3394 753.967 16.1937 754.121C20.0479 754.275 23.8606 753.287 27.1401 751.286C35.8928 745.909 39.7029 738.806 34.8631 731.247C33.5723 729.316 31.7994 727.743 29.7144 726.681C21.0131 721.557 5.00073 723.536 0.8303 734.037Z" fill="url(#paint4_linear_665_1764)"/>
<path d="M960.539 10.1482C959.531 13.0243 959.439 16.1356 960.276 19.0647C961.114 21.9937 962.84 24.6002 965.225 26.5345C968.321 28.7859 972.032 30.0714 975.877 30.2251C979.722 30.3788 983.526 29.3937 986.798 27.3969C995.602 22.0193 999.412 14.8662 994.572 7.10426C993.253 5.19664 991.487 3.63045 989.423 2.53843C980.413 -2.3318 964.71 -0.404 960.539 10.1482Z" fill="url(#paint5_linear_665_1764)"/>
<path d="M143.868 865.838C195.354 893.131 261.258 894.501 312.641 866.599C364.025 838.696 398.316 781.42 395.02 723.739C394.376 704.396 388.684 685.543 378.493 668.999C361.502 642.872 331.383 626.74 300.336 621.92C269.29 617.101 237.316 622.631 207.66 632.726C165.544 646.982 125.281 671.637 102.163 708.823C79.0457 746.01 75.9565 797.705 102.781 832.71C113.894 846.541 127.91 857.841 143.868 865.838V865.838Z" fill="url(#paint6_linear_665_1764)"/>
<path d="M82.7984 612.23C75.4176 609.331 67.6125 607.618 59.6808 607.157C47.3456 605.971 34.9561 608.804 24.4123 615.223C-1.743 633.892 14.1149 673.869 51.031 677.572C74.8694 679.957 108.181 667.426 110.395 645.459C111.94 629.986 98.6563 618.267 82.7984 612.23Z" fill="url(#paint7_linear_665_1764)"/>
<path opacity="0.5" d="M1524.7 779.166C1531.65 736.79 1502.41 696.893 1459.4 690.052C1416.4 683.212 1375.91 712.019 1368.96 754.394C1362.02 796.769 1391.26 836.667 1434.26 843.507C1477.27 850.348 1517.76 821.541 1524.7 779.166Z" stroke="white" stroke-width="14" stroke-miterlimit="10"/>
</g>
<defs>
<linearGradient id="paint0_linear_665_1764" x1="794.058" y1="242.349" x2="1420.12" y2="242.349" gradientUnits="userSpaceOnUse">
<stop stop-color="#0085FE"/>
<stop offset="1" stop-color="#29E5FF"/>
</linearGradient>
<linearGradient id="paint1_linear_665_1764" x1="350.002" y1="709.478" x2="825.586" y2="709.478" gradientUnits="userSpaceOnUse">
<stop stop-color="#0085FE"/>
<stop offset="1" stop-color="#29E5FF"/>
</linearGradient>
<linearGradient id="paint2_linear_665_1764" x1="24.9666" y1="442.803" x2="1653.41" y2="442.803" gradientUnits="userSpaceOnUse">
<stop stop-color="#0085FE"/>
<stop offset="1" stop-color="#29E5FF"/>
</linearGradient>
<linearGradient id="paint3_linear_665_1764" x1="1586.2" y1="506.177" x2="1413.01" y2="80.7618" gradientUnits="userSpaceOnUse">
<stop stop-color="#0085FE"/>
<stop offset="1" stop-color="#29E5FF"/>
</linearGradient>
<linearGradient id="paint4_linear_665_1764" x1="0.00274704" y1="739.055" x2="36.9958" y2="739.055" gradientUnits="userSpaceOnUse">
<stop stop-color="#0085FE"/>
<stop offset="1" stop-color="#29E5FF"/>
</linearGradient>
<linearGradient id="paint5_linear_665_1764" x1="959.712" y1="15.121" x2="996.703" y2="15.121" gradientUnits="userSpaceOnUse">
<stop stop-color="#0085FE"/>
<stop offset="1" stop-color="#29E5FF"/>
</linearGradient>
<linearGradient id="paint6_linear_665_1764" x1="83.7556" y1="753.546" x2="395.342" y2="753.546" gradientUnits="userSpaceOnUse">
<stop stop-color="#0085FE"/>
<stop offset="1" stop-color="#29E5FF"/>
</linearGradient>
<linearGradient id="paint7_linear_665_1764" x1="11.4878" y1="642.378" x2="110.551" y2="642.378" gradientUnits="userSpaceOnUse">
<stop stop-color="#0085FE"/>
<stop offset="1" stop-color="#29E5FF"/>
</linearGradient>
</defs>
</svg>
