<svg width="65" height="63" viewBox="0 0 65 63" fill="none" xmlns="http://www.w3.org/2000/svg">
<path d="M34.3882 44.8378V32.6895H38.4224L39.0221 27.9331H34.3882V24.9035C34.3882 23.5309 34.7646 22.5912 36.7037 22.5912H39.1607V18.3506C37.9652 18.2204 36.7635 18.1576 35.5612 18.1624C31.9953 18.1624 29.5471 20.3738 29.5471 24.4336V27.9242H25.5391V32.6807H29.5558V44.8378H34.3882Z" fill="white"/>
<path d="M64.2027 31.5C64.2027 48.6083 49.955 62.5 32.3514 62.5C14.7477 62.5 0.5 48.6083 0.5 31.5C0.5 14.3917 14.7477 0.5 32.3514 0.5C49.955 0.5 64.2027 14.3917 64.2027 31.5Z" stroke="white"/>
</svg>
