<svg width="247" height="29" viewBox="0 0 247 29" fill="none" xmlns="http://www.w3.org/2000/svg">
<g clip-path="url(#clip0_269_5587)">
<path d="M16.0867 24.2161L16.3556 24.7628C16.3863 24.8253 16.3974 24.8956 16.3875 24.9645C16.3776 25.0335 16.3471 25.0978 16.3001 25.149C16.0256 25.4446 15.7915 25.7222 15.5132 25.9441C10.2303 30.1499 2.28192 27.6154 0.391205 21.1283C-1.48917 14.6676 3.664 8.34947 10.391 8.87543C14.7159 9.21348 18.3892 12.6261 19.0229 16.8895C19.0821 17.2861 19.1376 17.6826 19.1762 18.0811C19.2175 18.5136 19.132 18.9026 18.692 19.2322C18.6346 19.2738 18.5653 19.2957 18.4945 19.2945H4.79035C4.7307 19.2952 4.67196 19.2799 4.62017 19.2501C4.19614 18.9961 4.00247 18.6279 4.18205 18.1246C4.35128 17.6524 4.77154 17.5051 5.23035 17.4711C5.52181 17.4485 5.81515 17.4598 6.10755 17.4598H16.7608C16.8104 17.4596 16.8593 17.4487 16.9043 17.4277C16.9492 17.4067 16.9891 17.3761 17.0212 17.3382C17.0533 17.3002 17.0768 17.2557 17.0901 17.2078C17.1034 17.1598 17.1062 17.1095 17.0984 17.0604C16.569 13.8357 13.771 11.1615 10.5988 10.8093C6.47235 10.3504 2.85826 12.8961 2.02808 16.9386C1.13678 21.2756 4.07298 25.0886 7.92211 25.9365C10.2801 26.4559 12.4087 25.9261 14.3154 24.4729C14.7648 24.1292 15.1907 23.7515 15.9212 24.0546C15.9944 24.0859 16.0534 24.1435 16.0867 24.2161Z" fill="white"/>
<path d="M61.4366 18.4608C61.3107 23.6779 57.3525 27.9913 51.858 28.0064C46.3231 28.0215 42.2333 23.6628 42.254 18.4003C42.2765 12.6148 47.0405 8.80278 51.9172 8.84905C56.8081 8.89626 61.3501 12.781 61.4366 18.4608ZM44.1287 18.5023C44.1419 22.6911 47.6187 26.1377 51.8317 26.1377C56.0625 26.1377 59.5506 22.6184 59.5224 18.3749C59.4942 14.1615 56.0437 10.7621 51.8129 10.7697C47.5134 10.7782 44.1127 14.2012 44.1268 18.4995L44.1287 18.5023Z" fill="white"/>
<path d="M24.5184 1.42807L24.5992 1.37236C24.6872 1.3117 24.7895 1.27525 24.8959 1.26663C25.0023 1.25802 25.1091 1.27754 25.2056 1.32325C25.3616 1.39682 25.4948 1.5116 25.5908 1.6553C25.6869 1.79901 25.7422 1.96624 25.7509 2.1391C25.939 5.69617 25.9681 23.6685 25.7961 27.116C25.7884 27.2731 25.7421 27.4258 25.6614 27.5606C25.5807 27.6953 25.468 27.808 25.3335 27.8884L25.2762 27.9234C25.1807 27.9792 25.072 28.008 24.9616 28.0067C24.8511 28.0054 24.7431 27.974 24.649 27.9158L24.5644 27.8629C24.4254 27.7777 24.3105 27.6579 24.2309 27.5152C24.1512 27.3725 24.1093 27.2116 24.1094 27.048V2.21371C24.1096 2.05937 24.1469 1.90736 24.2181 1.77059C24.2893 1.63383 24.3923 1.51632 24.5184 1.42807Z" fill="white"/>
<path d="M38.2128 27.7695C38.0705 27.8806 37.8963 27.9424 37.7162 27.9458C37.5361 27.9492 37.3597 27.894 37.2134 27.7884C37.0433 27.6709 36.8858 27.5361 36.7433 27.3861C34.715 25.1426 32.6986 22.8892 30.6941 20.6261C30.4927 20.4194 30.3311 20.177 30.2174 19.9113C30.067 19.4968 30.1967 19.12 30.5766 18.8622C30.7241 18.7513 30.9049 18.6941 31.0891 18.7001C31.2733 18.7061 31.45 18.775 31.5901 18.8953C31.7894 19.0536 31.9739 19.23 32.1411 19.4222C34.138 21.6444 36.1325 23.8687 38.1244 26.0953C38.7694 26.8234 38.8333 27.2813 38.2128 27.7695Z" fill="white"/>
<path d="M39.0773 7.13252V13.1173C39.077 13.308 39.0015 13.4908 38.8671 13.6255C38.7328 13.7602 38.5507 13.8359 38.3609 13.8359H38.1051C37.9141 13.8359 37.731 13.7597 37.5959 13.624C37.4608 13.4884 37.385 13.3044 37.385 13.1126V9.27413L29.4874 17.206C29.3887 17.3055 29.2715 17.3844 29.1425 17.4383C29.0134 17.4921 28.875 17.5198 28.7352 17.5198C28.5955 17.5198 28.4571 17.4921 28.328 17.4383C28.1989 17.3844 28.0817 17.3055 27.9831 17.206C27.8842 17.1069 27.8058 16.9891 27.7524 16.8595C27.699 16.7298 27.6717 16.5909 27.6719 16.4506C27.6717 16.3103 27.699 16.1713 27.7524 16.0417C27.8058 15.9121 27.8842 15.7943 27.9831 15.6952L35.8807 7.7633H32.0748C31.8849 7.76305 31.7029 7.68712 31.5688 7.55221C31.4346 7.4173 31.3593 7.23444 31.3593 7.04377V6.7907C31.3593 6.69571 31.3779 6.60165 31.4141 6.51389C31.4503 6.42614 31.5033 6.34641 31.5702 6.27924C31.6371 6.21208 31.7165 6.1588 31.8039 6.12245C31.8912 6.0861 31.9849 6.06738 32.0795 6.06738H38.0638C38.0857 6.06738 38.1073 6.06928 38.1286 6.07305C38.3692 6.09854 38.5937 6.20659 38.7642 6.379C38.9412 6.55592 39.0502 6.79009 39.0717 7.03999C39.0754 7.06831 39.0773 7.10042 39.0773 7.13252Z" fill="url(#paint0_linear_269_5587)"/>
<path d="M38.1308 7.87939V7.88501L38.0664 7.87939H38.1308Z" fill="white"/>
</g>
<path d="M184.55 25.4959C184.927 25.8713 184.848 26.1379 184.55 26.3256C184.118 26.6135 183.663 26.8646 183.189 27.0765C179.311 28.7135 175.718 28.2029 172.57 25.4358C171.638 24.6335 170.884 23.6463 170.356 22.537C169.827 21.4278 169.536 20.2209 169.501 18.9931C169.38 16.6429 169.926 14.4878 171.404 12.6519C173.807 9.64828 176.937 8.38304 180.785 9.01004C183.734 9.49061 185.92 11.0862 187.462 13.5905C188.312 14.9921 188.768 16.5964 188.782 18.2348C188.846 21.1632 188.805 24.0917 188.805 27.0202C188.805 27.3543 188.85 27.7035 188.357 27.9551C188.237 27.7974 188.034 27.6397 187.981 27.4407C187.936 27.1488 187.927 26.8525 187.955 26.5584C187.955 23.8514 187.955 21.1445 187.955 18.4375C187.945 16.1129 187.014 13.8865 185.366 12.2442C183.718 10.6018 181.485 9.67673 179.156 9.67081C175.888 9.67081 173.394 11.09 171.633 13.7444C169.279 17.3149 169.99 21.7564 172.878 24.6324C174.289 26.0111 176.119 26.8826 178.08 27.1096C180.041 27.3366 182.022 26.9063 183.712 25.8863C183.982 25.7367 184.262 25.6062 184.55 25.4959Z" fill="white"/>
<path d="M110.404 18.4487C110.226 13.3755 114.55 8.86101 119.882 8.85352C124.58 8.85352 129.404 12.6031 129.37 18.4712C129.37 19.7267 129.125 20.9697 128.649 22.1291C128.173 23.2884 127.476 24.3412 126.597 25.227C125.719 26.1129 124.676 26.8144 123.53 27.2913C122.383 27.7683 121.155 28.0112 119.915 28.0063C114.476 28.0288 110.237 23.4281 110.404 18.4487ZM119.911 9.72342C118.772 9.70256 117.641 9.91075 116.582 10.3359C115.523 10.7611 114.558 11.3949 113.742 12.2005C112.927 13.0061 112.277 13.9675 111.831 15.0291C111.385 16.0906 111.152 17.2313 111.144 18.3849C111.115 23.7018 115.617 27.1589 119.822 27.1739C124.224 27.1739 128.545 23.6118 128.571 18.4749C128.6 13.4955 124.465 9.59218 119.911 9.72342Z" fill="white"/>
<path d="M92.965 27.9202C92.965 27.5432 92.9349 27.1662 92.9349 26.7552C92.9349 23.4036 92.9688 20.052 92.9349 16.7004C92.9105 15.0718 92.2967 13.5072 91.2072 12.2965C90.1176 11.0859 88.6262 10.3112 87.0093 10.1161C85.3923 9.921 83.7594 10.3187 82.4132 11.2354C81.067 12.1521 80.0987 13.5258 79.6877 15.1019C79.5317 15.7513 79.4545 16.4171 79.4577 17.0849C79.4351 20.3234 79.4577 23.5657 79.4577 26.8042V27.8448C79.028 28.1238 78.7829 28.0258 78.6698 27.6789C78.6168 27.4633 78.5977 27.2407 78.6133 27.0191C78.6133 23.7052 78.5869 20.3875 78.6133 17.0736C78.5862 15.8594 78.845 14.6559 79.3689 13.5602C79.8928 12.4645 80.6671 11.5074 81.6292 10.7663C82.9407 9.75492 84.5517 9.20924 86.2078 9.21538C87.8639 9.22153 89.4708 9.77914 90.7748 10.8002C92.0994 11.795 93.046 13.211 93.4589 14.8153C93.645 15.6092 93.7474 16.4205 93.7642 17.2357C93.7982 20.478 93.7642 23.7165 93.7642 26.9551C93.7777 27.1781 93.7663 27.4019 93.7303 27.6224C93.6625 27.9767 93.425 28.0974 92.965 27.9202Z" fill="white"/>
<path d="M233.648 25.0884C233.945 25.2499 234.178 25.3551 234.4 25.4978C236.017 26.5867 237.919 27.1782 239.869 27.1994C241.526 27.2647 243.154 26.7492 244.47 25.742C247.158 23.5971 246.418 20.4193 244.166 19.0069C243.606 18.6406 242.994 18.3607 242.35 18.1768C241.375 17.9369 240.382 17.7774 239.381 17.6997C238.414 17.6308 237.469 17.3757 236.599 16.9484C236.106 16.7248 235.667 16.3992 235.31 15.9932C234.953 15.5872 234.686 15.11 234.528 14.5932C234.114 13.2184 234.528 12.0389 235.358 10.9684C236.184 9.9414 237.359 9.25303 238.659 9.03386C241.023 8.55306 243.241 9.07895 245.376 10.0744C245.673 10.2134 246.091 10.3523 245.899 10.7768C245.707 11.2013 245.343 10.9383 245.053 10.7993C243.472 10.0305 241.732 9.6445 239.974 9.67244C239.003 9.69042 238.051 9.94853 237.204 10.4237C236.581 10.7679 236.062 11.2724 235.7 11.8849C234.757 13.4551 235.174 15.1679 236.757 16.0957C237.474 16.4967 238.268 16.74 239.087 16.8094C240.162 16.9051 241.23 17.0619 242.286 17.279C243.769 17.5846 245.094 18.4091 246.023 19.6041C247.245 21.1856 247.406 23.691 246.023 25.3626C245.415 26.0952 244.667 26.6997 243.823 27.1408C242.979 27.5819 242.055 27.8508 241.106 27.9319C238.561 28.2362 235.991 27.6018 233.881 26.1476C233.355 25.7983 233.351 25.8021 233.648 25.0884Z" fill="white"/>
<path d="M228.006 11.8784C227.517 12.1594 227.299 11.8409 227.043 11.6498C225.958 10.7963 224.693 10.1981 223.342 9.89996C222.185 9.65215 220.989 9.63601 219.825 9.85248C218.661 10.0689 217.551 10.5137 216.561 11.1609C215.572 11.808 214.721 12.6447 214.059 13.6221C213.397 14.5996 212.936 15.6984 212.705 16.8545C212.503 17.9955 212.53 19.165 212.783 20.2957C213.037 21.4265 213.513 22.4961 214.184 23.443C214.854 24.3899 215.706 25.1954 216.691 25.8132C217.676 26.431 218.773 26.8489 219.921 27.0428C221.098 27.2679 222.31 27.2434 223.478 26.9709C224.645 26.6985 225.742 26.1842 226.696 25.4615C226.997 25.2489 227.308 25.0525 227.63 24.8732C227.679 24.8432 227.773 24.8732 227.856 24.8957C228.187 25.2367 227.987 25.5177 227.694 25.705C226.89 26.3029 226.032 26.8248 225.13 27.2638C219.439 29.5758 213.085 26.2783 211.956 20.2943C210.894 14.7112 214.41 10.2747 219.145 9.15055C220.524 8.79745 221.965 8.75862 223.361 9.03695C224.757 9.31527 226.072 9.90356 227.208 10.758C227.585 11.0241 228.097 11.2302 228.006 11.8784Z" fill="white"/>
<path d="M135.825 27.9194C135.283 28.1269 135.072 27.9421 135.008 27.6064C134.973 27.3478 134.964 27.0862 134.982 26.8257C134.982 23.6577 134.982 20.491 134.982 17.3255C134.982 14.6856 135.893 12.468 137.996 10.7822C139.304 9.76654 140.912 9.21533 142.568 9.21533C144.223 9.21533 145.832 9.76654 147.14 10.7822C148.465 11.7733 149.413 13.1876 149.826 14.7912C150.016 15.5849 150.119 16.3966 150.135 17.2124C150.169 20.4558 150.135 23.6955 150.135 26.9351C150.147 27.1883 150.125 27.4418 150.071 27.6894C149.985 27.9949 149.74 28.0665 149.318 27.8817C149.318 27.5423 149.284 27.1463 149.284 26.7503C149.284 23.4352 149.284 20.1202 149.284 16.8051C149.296 15.8323 149.093 14.8688 148.689 13.9839C148.286 13.099 147.691 12.3146 146.948 11.6873C146.079 10.9281 145.03 10.406 143.901 10.1713C142.772 9.93666 141.602 9.99746 140.504 10.3478C139.405 10.6982 138.415 11.3262 137.63 12.1713C136.845 13.0164 136.291 14.05 136.021 15.1721C135.871 15.8236 135.799 16.4909 135.807 17.1596C135.784 20.3615 135.807 23.571 135.807 26.7692L135.825 27.9194Z" fill="white"/>
<path d="M164.178 27.8925C163.751 28.1299 163.521 27.9754 163.423 27.6325C163.377 27.3396 163.363 27.0426 163.381 26.7468C163.381 23.4716 163.344 20.2003 163.381 16.9251C163.443 15.2354 162.841 13.5884 161.705 12.3346C161.15 11.6754 160.466 11.1366 159.694 10.7516C158.923 10.3665 158.08 10.1434 157.219 10.0959C155.843 9.99298 154.467 10.3083 153.273 11.0004C152.945 11.1964 152.571 11.5319 152.141 10.9439C152.279 10.7546 152.44 10.5825 152.62 10.4313C154.138 9.44126 155.965 9.03534 157.76 9.28908C159.556 9.54282 161.198 10.439 162.381 11.8108C163.605 13.1863 164.27 14.9686 164.246 16.8083C164.246 20.2304 164.246 23.6525 164.246 27.0747C164.223 27.3649 164.197 27.6513 164.178 27.8925Z" fill="white"/>
<path d="M104.578 3.49721C104.368 3.60906 104.147 3.69714 103.918 3.7598C101.375 4.16116 100.129 5.56782 100.107 8.09232C100.107 9.12012 100.107 10.1479 100.107 11.292C100.647 11.292 101.116 11.3108 101.588 11.3108H104.267C104.563 11.3108 104.89 11.2589 104.972 11.7203C104.91 11.9566 104.691 12.0085 104.541 12.0085C102.834 12.0085 101.127 12.0085 99.364 12.0085C99.3096 11.7459 99.2707 11.4804 99.2477 11.2132C99.2477 10.0316 99.2177 8.85004 99.2477 7.66844C99.2541 6.68131 99.5709 5.72121 100.153 4.92412C100.736 4.12702 101.554 3.53334 102.492 3.22713C102.952 3.08315 103.427 2.98883 103.907 2.9458C104.138 2.9764 104.361 3.05292 104.563 3.17087L104.578 3.49721Z" fill="white"/>
<path d="M99.8313 15.5686C100.087 15.7357 100.037 16.0254 100.09 16.2701C100.128 16.784 100.09 17.3054 100.09 17.8231V27.951L99.3399 27.996C99.2948 27.7353 99.2635 27.4724 99.2461 27.2083C99.2461 23.7073 99.2461 20.1963 99.2461 16.6752C99.2461 16.2964 99.3274 15.4099 99.8313 15.5686Z" fill="white"/>
<path d="M199.641 27.7555C199.426 27.8673 199.196 27.9481 198.959 27.9955C198.008 28.0059 197.077 27.7196 196.296 27.1763C195.516 26.6331 194.924 25.86 194.604 24.9646C194.428 24.4833 194.331 23.9765 194.318 23.4642C194.285 21.026 194.296 18.5877 194.296 16.1495C194.296 15.8269 194.232 15.373 194.694 15.373C195.155 15.373 195.147 15.8532 195.147 16.217C195.147 18.4339 195.147 20.6509 195.147 22.8678C195.136 23.4561 195.213 24.0428 195.376 24.6083C195.57 25.2908 195.966 25.8985 196.513 26.3506C197.059 26.8028 197.73 27.0782 198.437 27.1403C198.884 27.1891 199.36 27.1515 199.641 27.7555Z" fill="white"/>
<path d="M195.149 11.3327H200.026C199.857 11.6441 199.812 11.8841 199.677 11.9516C199.464 12.0145 199.241 12.0337 199.02 12.0079H194.482C194.294 11.3177 194.174 7.18399 194.305 6.09617C194.354 5.92803 194.429 5.76856 194.527 5.62354C195.131 5.71356 195.149 6.11492 195.149 6.5313C195.149 7.71289 195.149 8.89449 195.149 10.0761V11.3327Z" fill="white"/>
<path d="M72.3543 27.8853C72.3543 27.5946 72.3043 27.2662 72.3043 26.9416C72.3043 21.4355 72.3043 15.9268 72.3043 10.4157C72.3043 10.0118 72.0888 9.49466 72.7967 9.21533C72.9375 9.39617 73.0539 9.5941 73.143 9.80419C73.1804 10.025 73.1869 10.2498 73.1622 10.4723C73.1622 15.9029 73.1622 21.3361 73.1622 26.7717C73.1818 27.0682 73.1664 27.3658 73.1161 27.6588C73.0276 28.0136 72.766 28.1117 72.3543 27.8853Z" fill="white"/>
<path d="M72.3234 2.98201C72.2568 2.02627 72.2568 1.06743 72.3234 0.111684C72.7629 -0.103684 73.1082 -0.00714357 73.1357 0.397599C73.1906 1.16536 73.1906 1.93575 73.1357 2.70352C73.12 3.05256 72.8178 3.17139 72.3234 2.98201Z" fill="white"/>
<path d="M205.967 9.31543C206.098 9.48614 206.206 9.67423 206.286 9.87434C206.312 10.1325 206.312 10.3927 206.286 10.6508V26.7543C206.303 27.0486 206.291 27.3437 206.252 27.6358C206.184 28.0109 205.929 28.0972 205.524 27.9472C205.484 27.705 205.458 27.4608 205.445 27.2157C205.445 21.5915 205.445 15.9649 205.445 10.3357C205.468 9.98312 205.344 9.5705 205.967 9.31543Z" fill="white"/>
<path d="M205.532 0.0949245C205.945 -0.107635 206.241 0.0274124 206.26 0.372514C206.297 1.18255 206.29 1.99403 206.237 2.80322C206.237 2.93451 205.945 3.0508 205.78 3.17833C205.645 3.0508 205.498 2.98328 205.495 2.90825C205.402 1.97202 205.415 1.02836 205.532 0.0949245Z" fill="white"/>
<defs>
<linearGradient id="paint0_linear_269_5587" x1="27.6727" y1="11.7939" x2="39.0811" y2="11.7939" gradientUnits="userSpaceOnUse">
<stop stop-color="#0085FE"/>
<stop offset="1" stop-color="#29E5FF"/>
</linearGradient>
<clipPath id="clip0_269_5587">
<rect width="61.4337" height="26.7417" fill="white" transform="translate(0 1.26465)"/>
</clipPath>
</defs>
</svg>
