<svg width="66" height="63" viewBox="0 0 66 63" fill="none" xmlns="http://www.w3.org/2000/svg">
<path d="M33.0468 44.8378C29.4807 44.8378 29.0603 44.8186 27.6686 44.7564C26.5834 44.7201 25.5122 44.495 24.5011 44.0909C23.636 43.7474 22.8503 43.224 22.1939 42.5541C21.5376 41.8842 21.0249 41.0824 20.6886 40.1996C20.3078 39.1643 20.1024 38.0705 20.0812 36.9649C20 35.548 20 35.0836 20 31.4733C20 27.8246 20.0188 27.3986 20.0812 25.9861C20.1028 24.8821 20.3082 23.7898 20.6886 22.756C21.0246 21.872 21.5375 21.0692 22.1948 20.399C22.852 19.7287 23.639 19.2056 24.5055 18.8632C25.5183 18.473 26.5891 18.2629 27.6715 18.242C29.0559 18.1621 29.5111 18.1621 33.0468 18.1621C36.6419 18.1621 37.0551 18.1813 38.425 18.242C39.5093 18.2627 40.585 18.4727 41.5997 18.8632C42.466 19.206 43.2528 19.7292 43.91 20.3995C44.5671 21.0697 45.0803 21.8722 45.4166 22.756C45.8037 23.8061 46.011 24.9153 46.0269 26.035C46.1081 27.4519 46.1081 27.9148 46.1081 31.5236C46.1081 35.1324 46.0878 35.6057 46.0269 37.0064C46.0053 38.113 45.7994 39.2077 45.4181 40.2439C45.0809 41.1274 44.5673 41.9297 43.9099 42.5998C43.2526 43.27 42.4659 43.7933 41.5997 44.1367C40.585 44.5242 39.5137 44.7343 38.4308 44.7564C37.0464 44.8378 36.5926 44.8378 33.0468 44.8378ZM32.9975 20.5034C29.4517 20.5034 29.0835 20.5212 27.6991 20.5848C26.8723 20.5958 26.0534 20.7514 25.2782 21.0447C24.7127 21.2659 24.1989 21.6054 23.77 22.0416C23.341 22.4777 23.0064 23.0007 22.7877 23.5768C22.4977 24.3755 22.3455 25.22 22.3368 26.0719C22.26 27.5051 22.26 27.8808 22.26 31.4733C22.26 35.023 22.273 35.4534 22.3368 36.8777C22.3499 37.7207 22.5021 38.5564 22.7877 39.3477C23.2313 40.5116 24.1358 41.4316 25.2796 41.8783C26.0539 42.1735 26.8725 42.3291 27.6991 42.3382C29.1023 42.4211 29.472 42.4211 32.9975 42.4211C36.5535 42.4211 36.9217 42.4033 38.2945 42.3382C39.1214 42.328 39.9404 42.1724 40.7154 41.8783C41.2779 41.6554 41.7887 41.3156 42.2155 40.8805C42.6422 40.4453 42.9756 39.9243 43.1943 39.3506C43.4843 38.5519 43.6365 37.7059 43.6452 36.854H43.6611C43.7234 35.4401 43.7234 35.0629 43.7234 31.4497C43.7234 27.8364 43.7075 27.4563 43.6452 26.0438C43.6321 25.2015 43.4796 24.3674 43.1943 23.5768C42.9761 23.0023 42.643 22.4804 42.2162 22.0445C41.7894 21.6085 41.2783 21.268 40.7154 21.0447C39.9405 20.7499 39.1215 20.5943 38.2945 20.5848C36.8927 20.5034 36.526 20.5034 32.9975 20.5034ZM33.0468 38.3049C31.7212 38.3058 30.4251 37.9056 29.3225 37.1549C28.2199 36.4041 27.3602 35.3367 26.8523 34.0874C26.3443 32.8382 26.2109 31.4633 26.4689 30.1367C26.7269 28.8101 27.3647 27.5914 28.3016 26.6346C29.2385 25.6779 30.4325 25.0261 31.7325 24.7618C33.0326 24.4974 34.3802 24.6324 35.6051 25.1495C36.8299 25.6667 37.877 26.5428 38.6137 27.6671C39.3505 28.7915 39.7439 30.1135 39.7442 31.4659C39.7419 33.278 39.0357 35.0153 37.7804 36.2972C36.525 37.579 34.8229 38.301 33.0468 38.3049ZM33.0468 27.0259C32.1867 27.0259 31.3458 27.2861 30.6307 27.7737C29.9155 28.2612 29.3581 28.9542 29.0289 29.765C28.6998 30.5757 28.6136 31.4679 28.7814 32.3286C28.9492 33.1893 29.3634 33.9799 29.9716 34.6005C30.5799 35.221 31.3548 35.6436 32.1984 35.8148C33.042 35.986 33.9164 35.8981 34.7111 35.5623C35.5057 35.2265 36.1849 34.6578 36.6628 33.9281C37.1407 33.1984 37.3957 32.3405 37.3957 31.463C37.3931 30.287 36.934 29.16 36.119 28.3285C35.304 27.497 34.1994 27.0286 33.0468 27.0259ZM40.0051 25.9714C39.7999 25.9706 39.5968 25.9286 39.4075 25.8477C39.2182 25.7669 39.0464 25.6488 38.9018 25.5002C38.6098 25.2001 38.4466 24.7939 38.4482 24.3711C38.4497 23.9482 38.6158 23.5433 38.91 23.2454C39.2042 22.9475 39.6022 22.781 40.0167 22.7826C40.4312 22.7841 40.828 22.9536 41.12 23.2537C41.412 23.5539 41.5752 23.96 41.5736 24.3829C41.5721 24.8057 41.406 25.2107 41.1118 25.5086C40.8177 25.8065 40.4196 25.9729 40.0051 25.9714Z" fill="white"/>
<path d="M64.9058 31.5C64.9058 48.6083 50.6581 62.5 33.0545 62.5C15.4508 62.5 1.20312 48.6083 1.20312 31.5C1.20312 14.3917 15.4508 0.5 33.0545 0.5C50.6581 0.5 64.9058 14.3917 64.9058 31.5Z" stroke="white"/>
</svg>
