<svg width="66" height="63" viewBox="0 0 66 63" fill="none" xmlns="http://www.w3.org/2000/svg">
<path d="M22.9066 24.0012C24.6758 24.0012 26.1101 22.5669 26.1101 20.7977C26.1101 19.0285 24.6758 17.5942 22.9066 17.5942C21.1374 17.5942 19.7031 19.0285 19.7031 20.7977C19.7031 22.5669 21.1374 24.0012 22.9066 24.0012Z" fill="white"/>
<path d="M29.1293 26.428V44.2008H34.6475V35.4118C34.6475 33.0926 35.0838 30.8467 37.9593 30.8467C40.7953 30.8467 40.8304 33.4982 40.8304 35.5582V44.2023H46.3516V34.4557C46.3516 29.6681 45.3209 25.9888 39.725 25.9888C37.0384 25.9888 35.2375 27.4631 34.5011 28.8584H34.4264V26.428H29.1293ZM20.1367 26.428H25.6637V44.2008H20.1367V26.428Z" fill="white"/>
<path d="M64.609 31.5C64.609 48.6083 50.3613 62.5 32.7576 62.5C15.1539 62.5 0.90625 48.6083 0.90625 31.5C0.90625 14.3917 15.1539 0.5 32.7576 0.5C50.3613 0.5 64.609 14.3917 64.609 31.5Z" stroke="white"/>
</svg>
