<svg width="65" height="63" viewBox="0 0 65 63" fill="none" xmlns="http://www.w3.org/2000/svg">
<path d="M47.7854 22.002L44.5016 22.5505L46.6908 19.8078L42.8597 20.9049C37.934 15.4195 30.2719 21.4535 32.461 26.3904C23.7043 26.3904 19.3259 19.8078 19.3259 19.8078C19.3259 19.8078 16.0421 24.7447 21.5151 28.5845L18.2313 27.4875C18.2313 30.7787 20.4205 32.9729 24.2516 34.07H20.4205C22.6097 38.4584 26.4408 38.4584 26.4408 38.4584C26.4408 38.4584 23.157 41.2011 17.1367 41.2011C35.1975 49.9778 46.1435 33.5215 44.5016 24.7447L47.7854 22.002Z" fill="white"/>
<path d="M64.3121 31.5C64.3121 48.6083 50.0644 62.5 32.4607 62.5C14.8571 62.5 0.609375 48.6083 0.609375 31.5C0.609375 14.3917 14.8571 0.5 32.4607 0.5C50.0644 0.5 64.3121 14.3917 64.3121 31.5Z" stroke="white"/>
</svg>
